<?xml version="1.0" encoding="UTF-8"?>
<svg id="Layer_2" data-name="Layer 2" xmlns="http://www.w3.org/2000/svg" viewBox="0 0 900.19 140.8">
  <defs>
    <style>
      .cls-1 {
        fill: #222;
      }
    </style>
  </defs>
  <g id="Layer_1-2" data-name="Layer 1">
    <g>
      <path class="cls-1" d="m2.6,140H0L17.4,0h6.6l42,129.4L107.8,0h6.6l17.4,140h-16.6l-13.8-112-36.2,112h-12.6L16,29.4,2.6,140Z"/>
      <path class="cls-1" d="m167.8,117c0,10.53,2.8,17.27,8.4,20.2,2.67,1.33,6.07,2,10.2,2,8.4,0,15.9-3.2,22.5-9.6,6.6-6.4,10.17-12.33,10.7-17.8V40h14v85.8c0,3.87.77,6.83,2.3,8.9,1.53,2.07,3.1,3.17,4.7,3.3l2.2.4h6.2v1.6h-12.2c-5.47,0-9.63-1.2-12.5-3.6-2.87-2.4-4.37-4.8-4.5-7.2l-.2-3.4v-8.6c-2.4,5.73-6.67,11.1-12.8,16.1-6.13,5-12.83,7.5-20.1,7.5s-13.2-.7-17.8-2.1c-4.6-1.4-7.9-3.37-9.9-5.9-3.47-4.13-5.2-9.46-5.2-16V40h14v77Z"/>
      <path class="cls-1" d="m317.4,47c-2.13-1.73-5.57-3.2-10.3-4.4-4.73-1.2-8.3-1.8-10.7-1.8h-4.2c-7.2.13-12.4,1.97-15.6,5.5-3.2,3.54-4.8,7.5-4.8,11.9s1.4,8.1,4.2,11.1,6.3,5.33,10.5,7c4.2,1.67,8.73,3.57,13.6,5.7,4.87,2.13,9.4,4.3,13.6,6.5s7.7,5.4,10.5,9.6c2.8,4.2,4.2,9.43,4.2,15.7s-2.2,11.6-6.6,16c-4.4,4.4-9.3,7.33-14.7,8.8-5.4,1.46-11.23,2.2-17.5,2.2-13.6,0-23.8-3-30.6-9l1.2-1.2c2.67,2.53,6.63,4.6,11.9,6.2,5.27,1.6,10.37,2.4,15.3,2.4,7.87,0,14.37-2.17,19.5-6.5,5.13-4.33,7.7-9.73,7.7-16.2s-1.93-11.67-5.8-15.6c-3.87-3.93-8.57-7-14.1-9.2-5.53-2.2-11.1-4.4-16.7-6.6-5.6-2.2-10.33-5.27-14.2-9.2-3.87-3.93-5.8-8.5-5.8-13.7s1.2-9.43,3.6-12.7c2.4-3.27,5.6-5.57,9.6-6.9,6.8-2.27,13.6-3.4,20.4-3.4,11.46,0,20.4,2.13,26.8,6.4l-1,1.4Z"/>
      <path class="cls-1" d="m357,91.2c0,16.53,2.9,28.67,8.7,36.4,5.8,7.73,13.43,11.6,22.9,11.6,13.33,0,25.2-2,35.6-6l.6,1.4c-10.67,4.13-22.7,6.2-36.1,6.2s-24.3-4-32.7-12c-8.4-8-12.6-20.33-12.6-37s4.4-29.6,13.2-38.8,20-13.8,33.6-13.8c10.93,0,20.13,3.27,27.6,9.8,7.47,6.53,11.2,16.2,11.2,29v2h-71.4c-.4,3.6-.6,7.33-.6,11.2Zm51-41.2c-4.8-6.13-11-9.2-18.6-9.2s-14.37,3.33-20.3,10c-5.93,6.67-9.7,15.87-11.3,27.6h57.6c-.13-12.8-2.6-22.27-7.4-28.4Z"/>
      <path class="cls-1" d="m578.99,41.2l1.2-1.2c.53.27,1.23,1.07,2.1,2.4.87,1.33,1.4,2.53,1.6,3.6.2,1.07.3,2.07.3,3,0,3.6-.8,7.27-2.4,11l-36.4,80h-2l-28.8-77.4-35.2,77.4h-2l-37.2-100h14l30.6,82.8,28.8-62.6-7.4-20.2h14l30.6,82.8,29-62.8c1.6-2.8,2.4-6.13,2.4-10s-1.07-6.8-3.2-8.8Z"/>
      <path class="cls-1" d="m736.99,41.2l1.2-1.2c.53.27,1.23,1.07,2.1,2.4.87,1.33,1.4,2.53,1.6,3.6.2,1.07.3,2.07.3,3,0,3.6-.8,7.27-2.4,11l-36.4,80h-2l-28.8-77.4-35.2,77.4h-2l-37.2-100h14l30.6,82.8,28.8-62.6-7.4-20.2h14l30.6,82.8,29-62.8c1.6-2.8,2.4-6.13,2.4-10s-1.07-6.8-3.2-8.8Z"/>
      <path class="cls-1" d="m894.99,41.2l1.2-1.2c.53.27,1.23,1.07,2.1,2.4.87,1.33,1.4,2.53,1.6,3.6.2,1.07.3,2.07.3,3,0,3.6-.8,7.27-2.4,11l-36.4,80h-2l-28.8-77.4-35.2,77.4h-2l-37.2-100h14l30.6,82.8,28.8-62.6-7.4-20.2h14l30.6,82.8,29-62.8c1.6-2.8,2.4-6.13,2.4-10s-1.07-6.8-3.2-8.8Z"/>
    </g>
  </g>
</svg>